<svg xmlns="http://www.w3.org/2000/svg" viewBox="0 0 1200 630">
	<defs>
		<linearGradient id="background" x1="0" y1="0" x2="1" y2="1">
			<stop offset="0" stop-color="#07111f" />
			<stop offset="1" stop-color="#102a43" />
		</linearGradient>
		<linearGradient id="accent" x1="0" y1="0" x2="1" y2="0">
			<stop offset="0" stop-color="#38bdf8" />
			<stop offset="1" stop-color="#a78bfa" />
		</linearGradient>
	</defs>
	<rect width="1200" height="630" fill="url(#background)" />
	<g fill="none" stroke="#7dd3fc" stroke-width="3" opacity="0.35">
		<path d="M90 96h1020M90 534h1020" />
		<path d="M90 96v438M1110 96v438" />
	</g>
	<g font-family="ui-monospace, SFMono-Regular, Menlo, monospace">
		<text x="90" y="70" fill="#e0f2fe" font-size="28" letter-spacing="8">YUKIDOKE // V1 BETA</text>
		<text x="90" y="585" fill="#94a3b8" font-size="22">HOUSEHOLD FINANCE · PRIVACY · DOUBLE-ENTRY ACCOUNTING</text>
	</g>
	<g font-family="ui-monospace, SFMono-Regular, Menlo, monospace" text-anchor="middle">
		<rect x="105" y="170" width="230" height="126" rx="8" fill="#0f172a" stroke="#ef4444" stroke-width="4" />
		<text x="220" y="224" fill="#f8fafc" font-size="30">ANGULAR 22</text>
		<text x="220" y="262" fill="#cbd5e1" font-size="19">SPA · SIGNAL STORES</text>

		<rect x="485" y="118" width="230" height="102" rx="8" fill="#0f172a" stroke="#38bdf8" stroke-width="4" />
		<text x="600" y="166" fill="#f8fafc" font-size="27">KEYCLOAK</text>
		<text x="600" y="196" fill="#cbd5e1" font-size="18">OIDC · PKCE</text>

		<rect x="485" y="274" width="230" height="142" rx="8" fill="#0f172a" stroke="#a78bfa" stroke-width="4" />
		<text x="600" y="329" fill="#f8fafc" font-size="30">.NET 10 API</text>
		<text x="600" y="366" fill="#cbd5e1" font-size="18">MODULAR MONOLITH</text>
		<text x="600" y="393" fill="#cbd5e1" font-size="17">HOUSEHOLD RULES</text>

		<rect x="865" y="170" width="230" height="126" rx="8" fill="#0f172a" stroke="#60a5fa" stroke-width="4" />
		<text x="980" y="224" fill="#f8fafc" font-size="28">POSTGRESQL 16</text>
		<text x="980" y="262" fill="#cbd5e1" font-size="18">SCHEMA PER MODULE</text>

		<rect x="330" y="454" width="540" height="62" rx="8" fill="#0f172a" stroke="url(#accent)" stroke-width="4" />
		<text x="600" y="493" fill="#f8fafc" font-size="22">USERS · HOUSEHOLDS · ACCOUNTING · CARDS · DEBTS · INCOMES</text>
	</g>
	<g fill="none" stroke="#e0f2fe" stroke-width="4" stroke-linecap="square">
		<path d="M335 233h118" />
		<path d="M747 233h118" />
		<path d="M600 220v54" />
		<path d="M600 416v38" />
	</g>
	<g fill="#e0f2fe">
		<path d="m453 233-14-9v18z" />
		<path d="m865 233-14-9v18z" />
		<path d="m600 274-9-14h18z" />
		<path d="m600 454-9-14h18z" />
	</g>
</svg>
